<mxfile host="app.diagrams.net" agent="Mozilla/5.0 (Windows NT 10.0; Win64; x64) AppleWebKit/537.36 (KHTML, like Gecko) Chrome/137.0.0.0 Safari/537.36" version="27.1.4" pages="4">
  <diagram id="pnsMS49bM1N07cdEpEQe" name="Página-2">
    <mxGraphModel dx="1500" dy="596" grid="0" gridSize="10" guides="1" tooltips="1" connect="1" arrows="1" fold="1" page="1" pageScale="1" pageWidth="827" pageHeight="1169" math="0" shadow="0">
      <root>
        <mxCell id="0" />
        <mxCell id="1" parent="0" />
        <mxCell id="sKWLSbD7zj5nXkgGzIrd-1" style="edgeStyle=orthogonalEdgeStyle;rounded=0;orthogonalLoop=1;jettySize=auto;html=1;entryX=0;entryY=0.5;entryDx=0;entryDy=0;endArrow=none;startFill=0;shadow=1;" edge="1" parent="1" source="sKWLSbD7zj5nXkgGzIrd-2" target="sKWLSbD7zj5nXkgGzIrd-6">
          <mxGeometry relative="1" as="geometry" />
        </mxCell>
        <mxCell id="sKWLSbD7zj5nXkgGzIrd-2" value="docente" style="rounded=0;whiteSpace=wrap;html=1;shadow=1;" vertex="1" parent="1">
          <mxGeometry x="219" y="206" width="90" height="20" as="geometry" />
        </mxCell>
        <mxCell id="sKWLSbD7zj5nXkgGzIrd-3" value="materia" style="rounded=0;whiteSpace=wrap;html=1;shadow=1;" vertex="1" parent="1">
          <mxGeometry x="509" y="206" width="90" height="20" as="geometry" />
        </mxCell>
        <mxCell id="sKWLSbD7zj5nXkgGzIrd-4" style="edgeStyle=orthogonalEdgeStyle;rounded=0;orthogonalLoop=1;jettySize=auto;html=1;exitX=1;exitY=0.5;exitDx=0;exitDy=0;endArrow=none;startFill=0;shadow=1;" edge="1" parent="1" source="sKWLSbD7zj5nXkgGzIrd-6" target="sKWLSbD7zj5nXkgGzIrd-3">
          <mxGeometry relative="1" as="geometry" />
        </mxCell>
        <mxCell id="sKWLSbD7zj5nXkgGzIrd-6" value="participa_en" style="rhombus;whiteSpace=wrap;html=1;shadow=1;" vertex="1" parent="1">
          <mxGeometry x="363" y="191" width="100" height="50" as="geometry" />
        </mxCell>
        <mxCell id="sKWLSbD7zj5nXkgGzIrd-7" value="nom" style="ellipse;whiteSpace=wrap;html=1;shadow=1;" vertex="1" parent="1">
          <mxGeometry x="69" y="163.5" width="70" height="35" as="geometry" />
        </mxCell>
        <mxCell id="sKWLSbD7zj5nXkgGzIrd-8" value="&lt;u&gt;CUID&lt;/u&gt;" style="ellipse;whiteSpace=wrap;html=1;shadow=1;" vertex="1" parent="1">
          <mxGeometry x="229" y="156" width="70" height="35" as="geometry" />
        </mxCell>
        <mxCell id="sKWLSbD7zj5nXkgGzIrd-9" value="apellido" style="ellipse;whiteSpace=wrap;html=1;shadow=1;" vertex="1" parent="1">
          <mxGeometry x="69" y="241" width="70" height="35" as="geometry" />
        </mxCell>
        <mxCell id="sKWLSbD7zj5nXkgGzIrd-10" value="nombre" style="ellipse;whiteSpace=wrap;html=1;shadow=1;" vertex="1" parent="1">
          <mxGeometry x="139" y="198.5" width="70" height="35" as="geometry" />
        </mxCell>
        <mxCell id="sKWLSbD7zj5nXkgGzIrd-11" value="" style="endArrow=none;html=1;rounded=0;entryX=0.5;entryY=1;entryDx=0;entryDy=0;exitX=0.5;exitY=0;exitDx=0;exitDy=0;shadow=1;" edge="1" parent="1" source="sKWLSbD7zj5nXkgGzIrd-2" target="sKWLSbD7zj5nXkgGzIrd-8">
          <mxGeometry width="50" height="50" relative="1" as="geometry">
            <mxPoint x="419" y="316" as="sourcePoint" />
            <mxPoint x="469" y="266" as="targetPoint" />
          </mxGeometry>
        </mxCell>
        <mxCell id="sKWLSbD7zj5nXkgGzIrd-12" value="" style="endArrow=none;html=1;rounded=0;entryX=1;entryY=0.5;entryDx=0;entryDy=0;exitX=0;exitY=0.5;exitDx=0;exitDy=0;shadow=1;" edge="1" parent="1" source="sKWLSbD7zj5nXkgGzIrd-2" target="sKWLSbD7zj5nXkgGzIrd-10">
          <mxGeometry width="50" height="50" relative="1" as="geometry">
            <mxPoint x="289" y="211" as="sourcePoint" />
            <mxPoint x="299" y="186" as="targetPoint" />
          </mxGeometry>
        </mxCell>
        <mxCell id="sKWLSbD7zj5nXkgGzIrd-13" value="" style="endArrow=none;html=1;rounded=0;entryX=0.34;entryY=0.03;entryDx=0;entryDy=0;exitX=1;exitY=0.5;exitDx=0;exitDy=0;entryPerimeter=0;shadow=1;" edge="1" parent="1" source="sKWLSbD7zj5nXkgGzIrd-7" target="sKWLSbD7zj5nXkgGzIrd-10">
          <mxGeometry width="50" height="50" relative="1" as="geometry">
            <mxPoint x="209" y="281" as="sourcePoint" />
            <mxPoint x="219" y="256" as="targetPoint" />
          </mxGeometry>
        </mxCell>
        <mxCell id="sKWLSbD7zj5nXkgGzIrd-14" value="" style="endArrow=none;html=1;rounded=0;entryX=0;entryY=1;entryDx=0;entryDy=0;exitX=1;exitY=0;exitDx=0;exitDy=0;shadow=1;" edge="1" parent="1" source="sKWLSbD7zj5nXkgGzIrd-9" target="sKWLSbD7zj5nXkgGzIrd-10">
          <mxGeometry width="50" height="50" relative="1" as="geometry">
            <mxPoint x="209" y="281" as="sourcePoint" />
            <mxPoint x="219" y="256" as="targetPoint" />
          </mxGeometry>
        </mxCell>
        <mxCell id="sKWLSbD7zj5nXkgGzIrd-15" style="edgeStyle=orthogonalEdgeStyle;rounded=0;orthogonalLoop=1;jettySize=auto;html=1;exitX=0.5;exitY=1;exitDx=0;exitDy=0;shadow=1;" edge="1" parent="1" source="sKWLSbD7zj5nXkgGzIrd-3" target="sKWLSbD7zj5nXkgGzIrd-3">
          <mxGeometry relative="1" as="geometry" />
        </mxCell>
        <mxCell id="sKWLSbD7zj5nXkgGzIrd-16" value="nombre_ma" style="ellipse;whiteSpace=wrap;html=1;shadow=1;" vertex="1" parent="1">
          <mxGeometry x="579" y="146" width="70" height="35" as="geometry" />
        </mxCell>
        <mxCell id="sKWLSbD7zj5nXkgGzIrd-17" value="año" style="ellipse;whiteSpace=wrap;html=1;shadow=1;" vertex="1" parent="1">
          <mxGeometry x="629" y="198.5" width="70" height="35" as="geometry" />
        </mxCell>
        <mxCell id="sKWLSbD7zj5nXkgGzIrd-18" value="&lt;u&gt;cod_m&lt;/u&gt;" style="ellipse;whiteSpace=wrap;html=1;shadow=1;" vertex="1" parent="1">
          <mxGeometry x="579" y="256" width="70" height="35" as="geometry" />
        </mxCell>
        <mxCell id="sKWLSbD7zj5nXkgGzIrd-19" value="" style="endArrow=none;html=1;rounded=0;entryX=0;entryY=1;entryDx=0;entryDy=0;exitX=0.5;exitY=0;exitDx=0;exitDy=0;shadow=1;" edge="1" parent="1" source="sKWLSbD7zj5nXkgGzIrd-3" target="sKWLSbD7zj5nXkgGzIrd-16">
          <mxGeometry width="50" height="50" relative="1" as="geometry">
            <mxPoint x="329" y="211" as="sourcePoint" />
            <mxPoint x="329" y="196" as="targetPoint" />
          </mxGeometry>
        </mxCell>
        <mxCell id="sKWLSbD7zj5nXkgGzIrd-20" value="" style="endArrow=none;html=1;rounded=0;entryX=0;entryY=0.5;entryDx=0;entryDy=0;exitX=1;exitY=0.5;exitDx=0;exitDy=0;shadow=1;" edge="1" parent="1" source="sKWLSbD7zj5nXkgGzIrd-3" target="sKWLSbD7zj5nXkgGzIrd-17">
          <mxGeometry width="50" height="50" relative="1" as="geometry">
            <mxPoint x="609" y="241" as="sourcePoint" />
            <mxPoint x="609" y="226" as="targetPoint" />
          </mxGeometry>
        </mxCell>
        <mxCell id="sKWLSbD7zj5nXkgGzIrd-21" value="" style="endArrow=none;html=1;rounded=0;exitX=0;exitY=0;exitDx=0;exitDy=0;shadow=1;" edge="1" parent="1" source="sKWLSbD7zj5nXkgGzIrd-18">
          <mxGeometry width="50" height="50" relative="1" as="geometry">
            <mxPoint x="549" y="241" as="sourcePoint" />
            <mxPoint x="549" y="226" as="targetPoint" />
          </mxGeometry>
        </mxCell>
        <mxCell id="sKWLSbD7zj5nXkgGzIrd-22" value="(1,1)" style="text;html=1;align=center;verticalAlign=middle;resizable=0;points=[];autosize=1;strokeColor=none;fillColor=none;" vertex="1" parent="1">
          <mxGeometry x="304" y="191" width="43" height="26" as="geometry" />
        </mxCell>
        <mxCell id="sKWLSbD7zj5nXkgGzIrd-23" value="(1,1)" style="text;html=1;align=center;verticalAlign=middle;resizable=0;points=[];autosize=1;strokeColor=none;fillColor=none;" vertex="1" parent="1">
          <mxGeometry x="467" y="194" width="43" height="26" as="geometry" />
        </mxCell>
      </root>
    </mxGraphModel>
  </diagram>
  <diagram name="Página-1" id="rsd5hCGK3M-iy_V146ej">
    <mxGraphModel dx="1250" dy="497" grid="0" gridSize="10" guides="1" tooltips="1" connect="1" arrows="1" fold="1" page="1" pageScale="1" pageWidth="827" pageHeight="1169" math="0" shadow="0">
      <root>
        <mxCell id="0" />
        <mxCell id="1" parent="0" />
        <mxCell id="Ja3WZiZs346RMBA0UmDv-9" style="edgeStyle=orthogonalEdgeStyle;rounded=0;orthogonalLoop=1;jettySize=auto;html=1;entryX=0;entryY=0.5;entryDx=0;entryDy=0;endArrow=none;startFill=0;shadow=1;" edge="1" parent="1" source="Ja3WZiZs346RMBA0UmDv-1" target="Ja3WZiZs346RMBA0UmDv-3">
          <mxGeometry relative="1" as="geometry" />
        </mxCell>
        <mxCell id="Ja3WZiZs346RMBA0UmDv-1" value="docente" style="rounded=0;whiteSpace=wrap;html=1;shadow=1;" vertex="1" parent="1">
          <mxGeometry x="170" y="130" width="90" height="20" as="geometry" />
        </mxCell>
        <mxCell id="Ja3WZiZs346RMBA0UmDv-2" value="materia" style="rounded=0;whiteSpace=wrap;html=1;shadow=1;" vertex="1" parent="1">
          <mxGeometry x="460" y="130" width="90" height="20" as="geometry" />
        </mxCell>
        <mxCell id="Ja3WZiZs346RMBA0UmDv-10" style="edgeStyle=orthogonalEdgeStyle;rounded=0;orthogonalLoop=1;jettySize=auto;html=1;exitX=1;exitY=0.5;exitDx=0;exitDy=0;endArrow=none;startFill=0;shadow=1;" edge="1" parent="1" source="Ja3WZiZs346RMBA0UmDv-3" target="Ja3WZiZs346RMBA0UmDv-2">
          <mxGeometry relative="1" as="geometry" />
        </mxCell>
        <mxCell id="Ja3WZiZs346RMBA0UmDv-30" value="" style="edgeStyle=orthogonalEdgeStyle;rounded=0;orthogonalLoop=1;jettySize=auto;html=1;endArrow=none;startFill=0;" edge="1" parent="1" source="Ja3WZiZs346RMBA0UmDv-3" target="Ja3WZiZs346RMBA0UmDv-29">
          <mxGeometry relative="1" as="geometry" />
        </mxCell>
        <mxCell id="Ja3WZiZs346RMBA0UmDv-3" value="participa_en" style="rhombus;whiteSpace=wrap;html=1;shadow=1;" vertex="1" parent="1">
          <mxGeometry x="314" y="115" width="100" height="50" as="geometry" />
        </mxCell>
        <mxCell id="Ja3WZiZs346RMBA0UmDv-4" value="nom" style="ellipse;whiteSpace=wrap;html=1;shadow=1;" vertex="1" parent="1">
          <mxGeometry x="20" y="87.5" width="70" height="35" as="geometry" />
        </mxCell>
        <mxCell id="Ja3WZiZs346RMBA0UmDv-6" value="&lt;u&gt;CUID&lt;/u&gt;" style="ellipse;whiteSpace=wrap;html=1;shadow=1;" vertex="1" parent="1">
          <mxGeometry x="180" y="80" width="70" height="35" as="geometry" />
        </mxCell>
        <mxCell id="Ja3WZiZs346RMBA0UmDv-7" value="apellido" style="ellipse;whiteSpace=wrap;html=1;shadow=1;" vertex="1" parent="1">
          <mxGeometry x="20" y="165" width="70" height="35" as="geometry" />
        </mxCell>
        <mxCell id="Ja3WZiZs346RMBA0UmDv-8" value="nombre" style="ellipse;whiteSpace=wrap;html=1;shadow=1;" vertex="1" parent="1">
          <mxGeometry x="90" y="122.5" width="70" height="35" as="geometry" />
        </mxCell>
        <mxCell id="Ja3WZiZs346RMBA0UmDv-11" value="" style="endArrow=none;html=1;rounded=0;entryX=0.5;entryY=1;entryDx=0;entryDy=0;exitX=0.5;exitY=0;exitDx=0;exitDy=0;shadow=1;" edge="1" parent="1" source="Ja3WZiZs346RMBA0UmDv-1" target="Ja3WZiZs346RMBA0UmDv-6">
          <mxGeometry width="50" height="50" relative="1" as="geometry">
            <mxPoint x="370" y="240" as="sourcePoint" />
            <mxPoint x="420" y="190" as="targetPoint" />
          </mxGeometry>
        </mxCell>
        <mxCell id="Ja3WZiZs346RMBA0UmDv-12" value="" style="endArrow=none;html=1;rounded=0;entryX=1;entryY=0.5;entryDx=0;entryDy=0;exitX=0;exitY=0.5;exitDx=0;exitDy=0;shadow=1;" edge="1" parent="1" source="Ja3WZiZs346RMBA0UmDv-1" target="Ja3WZiZs346RMBA0UmDv-8">
          <mxGeometry width="50" height="50" relative="1" as="geometry">
            <mxPoint x="240" y="135" as="sourcePoint" />
            <mxPoint x="250" y="110" as="targetPoint" />
          </mxGeometry>
        </mxCell>
        <mxCell id="Ja3WZiZs346RMBA0UmDv-13" value="" style="endArrow=none;html=1;rounded=0;entryX=0.34;entryY=0.03;entryDx=0;entryDy=0;exitX=1;exitY=0.5;exitDx=0;exitDy=0;entryPerimeter=0;shadow=1;" edge="1" parent="1" source="Ja3WZiZs346RMBA0UmDv-4" target="Ja3WZiZs346RMBA0UmDv-8">
          <mxGeometry width="50" height="50" relative="1" as="geometry">
            <mxPoint x="160" y="205" as="sourcePoint" />
            <mxPoint x="170" y="180" as="targetPoint" />
          </mxGeometry>
        </mxCell>
        <mxCell id="Ja3WZiZs346RMBA0UmDv-14" value="" style="endArrow=none;html=1;rounded=0;entryX=0;entryY=1;entryDx=0;entryDy=0;exitX=1;exitY=0;exitDx=0;exitDy=0;shadow=1;" edge="1" parent="1" source="Ja3WZiZs346RMBA0UmDv-7" target="Ja3WZiZs346RMBA0UmDv-8">
          <mxGeometry width="50" height="50" relative="1" as="geometry">
            <mxPoint x="160" y="205" as="sourcePoint" />
            <mxPoint x="170" y="180" as="targetPoint" />
          </mxGeometry>
        </mxCell>
        <mxCell id="Ja3WZiZs346RMBA0UmDv-16" style="edgeStyle=orthogonalEdgeStyle;rounded=0;orthogonalLoop=1;jettySize=auto;html=1;exitX=0.5;exitY=1;exitDx=0;exitDy=0;shadow=1;" edge="1" parent="1" source="Ja3WZiZs346RMBA0UmDv-2" target="Ja3WZiZs346RMBA0UmDv-2">
          <mxGeometry relative="1" as="geometry" />
        </mxCell>
        <mxCell id="Ja3WZiZs346RMBA0UmDv-17" value="nombre_ma" style="ellipse;whiteSpace=wrap;html=1;shadow=1;" vertex="1" parent="1">
          <mxGeometry x="530" y="70" width="70" height="35" as="geometry" />
        </mxCell>
        <mxCell id="Ja3WZiZs346RMBA0UmDv-18" value="año" style="ellipse;whiteSpace=wrap;html=1;shadow=1;" vertex="1" parent="1">
          <mxGeometry x="580" y="122.5" width="70" height="35" as="geometry" />
        </mxCell>
        <mxCell id="Ja3WZiZs346RMBA0UmDv-19" value="&lt;u&gt;cod_m&lt;/u&gt;" style="ellipse;whiteSpace=wrap;html=1;shadow=1;" vertex="1" parent="1">
          <mxGeometry x="530" y="180" width="70" height="35" as="geometry" />
        </mxCell>
        <mxCell id="Ja3WZiZs346RMBA0UmDv-20" value="" style="endArrow=none;html=1;rounded=0;entryX=0;entryY=1;entryDx=0;entryDy=0;exitX=0.5;exitY=0;exitDx=0;exitDy=0;shadow=1;" edge="1" parent="1" source="Ja3WZiZs346RMBA0UmDv-2" target="Ja3WZiZs346RMBA0UmDv-17">
          <mxGeometry width="50" height="50" relative="1" as="geometry">
            <mxPoint x="280" y="135" as="sourcePoint" />
            <mxPoint x="280" y="120" as="targetPoint" />
          </mxGeometry>
        </mxCell>
        <mxCell id="Ja3WZiZs346RMBA0UmDv-21" value="" style="endArrow=none;html=1;rounded=0;entryX=0;entryY=0.5;entryDx=0;entryDy=0;exitX=1;exitY=0.5;exitDx=0;exitDy=0;shadow=1;" edge="1" parent="1" source="Ja3WZiZs346RMBA0UmDv-2" target="Ja3WZiZs346RMBA0UmDv-18">
          <mxGeometry width="50" height="50" relative="1" as="geometry">
            <mxPoint x="560" y="165" as="sourcePoint" />
            <mxPoint x="560" y="150" as="targetPoint" />
          </mxGeometry>
        </mxCell>
        <mxCell id="Ja3WZiZs346RMBA0UmDv-22" value="" style="endArrow=none;html=1;rounded=0;exitX=0;exitY=0;exitDx=0;exitDy=0;shadow=1;" edge="1" parent="1" source="Ja3WZiZs346RMBA0UmDv-19">
          <mxGeometry width="50" height="50" relative="1" as="geometry">
            <mxPoint x="500" y="165" as="sourcePoint" />
            <mxPoint x="500" y="150" as="targetPoint" />
          </mxGeometry>
        </mxCell>
        <mxCell id="Ja3WZiZs346RMBA0UmDv-25" value="(1,1)" style="text;html=1;align=center;verticalAlign=middle;resizable=0;points=[];autosize=1;strokeColor=none;fillColor=none;" vertex="1" parent="1">
          <mxGeometry x="255" y="115" width="43" height="26" as="geometry" />
        </mxCell>
        <mxCell id="Ja3WZiZs346RMBA0UmDv-26" value="(1,1)" style="text;html=1;align=center;verticalAlign=middle;resizable=0;points=[];autosize=1;strokeColor=none;fillColor=none;" vertex="1" parent="1">
          <mxGeometry x="418" y="118" width="43" height="26" as="geometry" />
        </mxCell>
        <mxCell id="Ja3WZiZs346RMBA0UmDv-29" value="período" style="ellipse;whiteSpace=wrap;html=1;shadow=1;" vertex="1" parent="1">
          <mxGeometry x="322" y="200" width="84" height="39" as="geometry" />
        </mxCell>
      </root>
    </mxGraphModel>
  </diagram>
  <diagram id="vsO81B4Hu3DBIRmLXSPT" name="Página-3">
    <mxGraphModel dx="714" dy="284" grid="0" gridSize="10" guides="1" tooltips="1" connect="1" arrows="1" fold="1" page="1" pageScale="1" pageWidth="827" pageHeight="1169" math="0" shadow="0">
      <root>
        <mxCell id="0" />
        <mxCell id="1" parent="0" />
        <mxCell id="KaRYjVdz65i54c7v9k-w-1" style="edgeStyle=orthogonalEdgeStyle;rounded=0;orthogonalLoop=1;jettySize=auto;html=1;entryX=0;entryY=0.5;entryDx=0;entryDy=0;endArrow=none;startFill=0;shadow=1;" parent="1" source="KaRYjVdz65i54c7v9k-w-2" target="KaRYjVdz65i54c7v9k-w-6" edge="1">
          <mxGeometry relative="1" as="geometry" />
        </mxCell>
        <mxCell id="eT6mmdTu_MQDA3PE5pMZ-3" value="" style="edgeStyle=orthogonalEdgeStyle;rounded=0;orthogonalLoop=1;jettySize=auto;html=1;endArrow=none;startFill=0;" edge="1" parent="1" source="KaRYjVdz65i54c7v9k-w-2" target="eT6mmdTu_MQDA3PE5pMZ-2">
          <mxGeometry relative="1" as="geometry" />
        </mxCell>
        <mxCell id="KaRYjVdz65i54c7v9k-w-2" value="docente" style="rounded=0;whiteSpace=wrap;html=1;shadow=1;" parent="1" vertex="1">
          <mxGeometry x="243" y="216" width="90" height="20" as="geometry" />
        </mxCell>
        <mxCell id="KaRYjVdz65i54c7v9k-w-3" value="materia" style="rounded=0;whiteSpace=wrap;html=1;shadow=1;" parent="1" vertex="1">
          <mxGeometry x="533" y="216" width="90" height="20" as="geometry" />
        </mxCell>
        <mxCell id="KaRYjVdz65i54c7v9k-w-4" style="edgeStyle=orthogonalEdgeStyle;rounded=0;orthogonalLoop=1;jettySize=auto;html=1;exitX=1;exitY=0.5;exitDx=0;exitDy=0;endArrow=none;startFill=0;shadow=1;" parent="1" source="KaRYjVdz65i54c7v9k-w-6" target="KaRYjVdz65i54c7v9k-w-3" edge="1">
          <mxGeometry relative="1" as="geometry" />
        </mxCell>
        <mxCell id="KaRYjVdz65i54c7v9k-w-5" value="" style="edgeStyle=orthogonalEdgeStyle;rounded=0;orthogonalLoop=1;jettySize=auto;html=1;endArrow=none;startFill=0;" parent="1" source="KaRYjVdz65i54c7v9k-w-6" target="KaRYjVdz65i54c7v9k-w-24" edge="1">
          <mxGeometry relative="1" as="geometry" />
        </mxCell>
        <mxCell id="KaRYjVdz65i54c7v9k-w-6" value="participa_en" style="rhombus;whiteSpace=wrap;html=1;shadow=1;" parent="1" vertex="1">
          <mxGeometry x="387" y="201" width="100" height="50" as="geometry" />
        </mxCell>
        <mxCell id="KaRYjVdz65i54c7v9k-w-7" value="nom" style="ellipse;whiteSpace=wrap;html=1;shadow=1;" parent="1" vertex="1">
          <mxGeometry x="93" y="173.5" width="70" height="35" as="geometry" />
        </mxCell>
        <mxCell id="KaRYjVdz65i54c7v9k-w-8" value="&lt;u&gt;CUID&lt;/u&gt;" style="ellipse;whiteSpace=wrap;html=1;shadow=1;" parent="1" vertex="1">
          <mxGeometry x="253" y="166" width="70" height="35" as="geometry" />
        </mxCell>
        <mxCell id="KaRYjVdz65i54c7v9k-w-9" value="apellido" style="ellipse;whiteSpace=wrap;html=1;shadow=1;" parent="1" vertex="1">
          <mxGeometry x="93" y="251" width="70" height="35" as="geometry" />
        </mxCell>
        <mxCell id="KaRYjVdz65i54c7v9k-w-10" value="nombre" style="ellipse;whiteSpace=wrap;html=1;shadow=1;" parent="1" vertex="1">
          <mxGeometry x="163" y="208.5" width="70" height="35" as="geometry" />
        </mxCell>
        <mxCell id="KaRYjVdz65i54c7v9k-w-11" value="" style="endArrow=none;html=1;rounded=0;entryX=0.5;entryY=1;entryDx=0;entryDy=0;exitX=0.5;exitY=0;exitDx=0;exitDy=0;shadow=1;" parent="1" source="KaRYjVdz65i54c7v9k-w-2" target="KaRYjVdz65i54c7v9k-w-8" edge="1">
          <mxGeometry width="50" height="50" relative="1" as="geometry">
            <mxPoint x="443" y="326" as="sourcePoint" />
            <mxPoint x="493" y="276" as="targetPoint" />
          </mxGeometry>
        </mxCell>
        <mxCell id="KaRYjVdz65i54c7v9k-w-12" value="" style="endArrow=none;html=1;rounded=0;entryX=1;entryY=0.5;entryDx=0;entryDy=0;exitX=0;exitY=0.5;exitDx=0;exitDy=0;shadow=1;" parent="1" source="KaRYjVdz65i54c7v9k-w-2" target="KaRYjVdz65i54c7v9k-w-10" edge="1">
          <mxGeometry width="50" height="50" relative="1" as="geometry">
            <mxPoint x="313" y="221" as="sourcePoint" />
            <mxPoint x="323" y="196" as="targetPoint" />
          </mxGeometry>
        </mxCell>
        <mxCell id="KaRYjVdz65i54c7v9k-w-13" value="" style="endArrow=none;html=1;rounded=0;entryX=0.34;entryY=0.03;entryDx=0;entryDy=0;exitX=1;exitY=0.5;exitDx=0;exitDy=0;entryPerimeter=0;shadow=1;" parent="1" source="KaRYjVdz65i54c7v9k-w-7" target="KaRYjVdz65i54c7v9k-w-10" edge="1">
          <mxGeometry width="50" height="50" relative="1" as="geometry">
            <mxPoint x="233" y="291" as="sourcePoint" />
            <mxPoint x="243" y="266" as="targetPoint" />
          </mxGeometry>
        </mxCell>
        <mxCell id="KaRYjVdz65i54c7v9k-w-14" value="" style="endArrow=none;html=1;rounded=0;entryX=0;entryY=1;entryDx=0;entryDy=0;exitX=1;exitY=0;exitDx=0;exitDy=0;shadow=1;" parent="1" source="KaRYjVdz65i54c7v9k-w-9" target="KaRYjVdz65i54c7v9k-w-10" edge="1">
          <mxGeometry width="50" height="50" relative="1" as="geometry">
            <mxPoint x="233" y="291" as="sourcePoint" />
            <mxPoint x="243" y="266" as="targetPoint" />
          </mxGeometry>
        </mxCell>
        <mxCell id="KaRYjVdz65i54c7v9k-w-15" style="edgeStyle=orthogonalEdgeStyle;rounded=0;orthogonalLoop=1;jettySize=auto;html=1;exitX=0.5;exitY=1;exitDx=0;exitDy=0;shadow=1;" parent="1" source="KaRYjVdz65i54c7v9k-w-3" target="KaRYjVdz65i54c7v9k-w-3" edge="1">
          <mxGeometry relative="1" as="geometry" />
        </mxCell>
        <mxCell id="KaRYjVdz65i54c7v9k-w-16" value="nombre_ma" style="ellipse;whiteSpace=wrap;html=1;shadow=1;" parent="1" vertex="1">
          <mxGeometry x="603" y="156" width="70" height="35" as="geometry" />
        </mxCell>
        <mxCell id="KaRYjVdz65i54c7v9k-w-17" value="año" style="ellipse;whiteSpace=wrap;html=1;shadow=1;" parent="1" vertex="1">
          <mxGeometry x="653" y="208.5" width="70" height="35" as="geometry" />
        </mxCell>
        <mxCell id="KaRYjVdz65i54c7v9k-w-18" value="&lt;u&gt;cod_m&lt;/u&gt;" style="ellipse;whiteSpace=wrap;html=1;shadow=1;" parent="1" vertex="1">
          <mxGeometry x="603" y="266" width="70" height="35" as="geometry" />
        </mxCell>
        <mxCell id="KaRYjVdz65i54c7v9k-w-19" value="" style="endArrow=none;html=1;rounded=0;entryX=0;entryY=1;entryDx=0;entryDy=0;exitX=0.5;exitY=0;exitDx=0;exitDy=0;shadow=1;" parent="1" source="KaRYjVdz65i54c7v9k-w-3" target="KaRYjVdz65i54c7v9k-w-16" edge="1">
          <mxGeometry width="50" height="50" relative="1" as="geometry">
            <mxPoint x="353" y="221" as="sourcePoint" />
            <mxPoint x="353" y="206" as="targetPoint" />
          </mxGeometry>
        </mxCell>
        <mxCell id="KaRYjVdz65i54c7v9k-w-20" value="" style="endArrow=none;html=1;rounded=0;entryX=0;entryY=0.5;entryDx=0;entryDy=0;exitX=1;exitY=0.5;exitDx=0;exitDy=0;shadow=1;" parent="1" source="KaRYjVdz65i54c7v9k-w-3" target="KaRYjVdz65i54c7v9k-w-17" edge="1">
          <mxGeometry width="50" height="50" relative="1" as="geometry">
            <mxPoint x="633" y="251" as="sourcePoint" />
            <mxPoint x="633" y="236" as="targetPoint" />
          </mxGeometry>
        </mxCell>
        <mxCell id="KaRYjVdz65i54c7v9k-w-21" value="" style="endArrow=none;html=1;rounded=0;exitX=0;exitY=0;exitDx=0;exitDy=0;shadow=1;" parent="1" source="KaRYjVdz65i54c7v9k-w-18" edge="1">
          <mxGeometry width="50" height="50" relative="1" as="geometry">
            <mxPoint x="573" y="251" as="sourcePoint" />
            <mxPoint x="573" y="236" as="targetPoint" />
          </mxGeometry>
        </mxCell>
        <mxCell id="KaRYjVdz65i54c7v9k-w-22" value="(1,1)" style="text;html=1;align=center;verticalAlign=middle;resizable=0;points=[];autosize=1;strokeColor=none;fillColor=none;" parent="1" vertex="1">
          <mxGeometry x="328" y="201" width="43" height="26" as="geometry" />
        </mxCell>
        <mxCell id="KaRYjVdz65i54c7v9k-w-23" value="(1,1)" style="text;html=1;align=center;verticalAlign=middle;resizable=0;points=[];autosize=1;strokeColor=none;fillColor=none;" parent="1" vertex="1">
          <mxGeometry x="491" y="204" width="43" height="26" as="geometry" />
        </mxCell>
        <mxCell id="KaRYjVdz65i54c7v9k-w-24" value="período" style="ellipse;whiteSpace=wrap;html=1;shadow=1;" parent="1" vertex="1">
          <mxGeometry x="395" y="286" width="84" height="39" as="geometry" />
        </mxCell>
        <mxCell id="eT6mmdTu_MQDA3PE5pMZ-4" style="edgeStyle=orthogonalEdgeStyle;rounded=0;orthogonalLoop=1;jettySize=auto;html=1;exitX=0;exitY=0.5;exitDx=0;exitDy=0;endArrow=none;startFill=0;" edge="1" parent="1" source="eT6mmdTu_MQDA3PE5pMZ-2">
          <mxGeometry relative="1" as="geometry">
            <mxPoint x="270" y="236" as="targetPoint" />
            <Array as="points">
              <mxPoint x="219" y="311" />
              <mxPoint x="219" y="267" />
              <mxPoint x="270" y="267" />
            </Array>
          </mxGeometry>
        </mxCell>
        <mxCell id="eT6mmdTu_MQDA3PE5pMZ-2" value="compañero_de" style="rhombus;whiteSpace=wrap;html=1;rounded=0;shadow=1;" vertex="1" parent="1">
          <mxGeometry x="236" y="288" width="104" height="46" as="geometry" />
        </mxCell>
        <mxCell id="eT6mmdTu_MQDA3PE5pMZ-6" value="(0,n)" style="text;html=1;align=center;verticalAlign=middle;resizable=0;points=[];autosize=1;strokeColor=none;fillColor=none;" vertex="1" parent="1">
          <mxGeometry x="223" y="240" width="43" height="26" as="geometry" />
        </mxCell>
        <mxCell id="eT6mmdTu_MQDA3PE5pMZ-8" value="(0,n)" style="text;html=1;align=center;verticalAlign=middle;resizable=0;points=[];autosize=1;strokeColor=none;fillColor=none;" vertex="1" parent="1">
          <mxGeometry x="212" y="286" width="43" height="26" as="geometry" />
        </mxCell>
      </root>
    </mxGraphModel>
  </diagram>
  <diagram id="0J3M09scjQSka4Xm1_Nl" name="Página-4">
    <mxGraphModel dx="857" dy="341" grid="0" gridSize="10" guides="1" tooltips="1" connect="1" arrows="1" fold="1" page="1" pageScale="1" pageWidth="827" pageHeight="1169" math="0" shadow="0">
      <root>
        <mxCell id="0" />
        <mxCell id="1" parent="0" />
        <mxCell id="tUgD86OeabH8EpuCC3bH-1" style="edgeStyle=orthogonalEdgeStyle;rounded=0;orthogonalLoop=1;jettySize=auto;html=1;entryX=0;entryY=0.5;entryDx=0;entryDy=0;endArrow=none;startFill=0;shadow=1;" edge="1" parent="1" source="tUgD86OeabH8EpuCC3bH-3" target="tUgD86OeabH8EpuCC3bH-7">
          <mxGeometry relative="1" as="geometry" />
        </mxCell>
        <mxCell id="tUgD86OeabH8EpuCC3bH-2" value="" style="edgeStyle=orthogonalEdgeStyle;rounded=0;orthogonalLoop=1;jettySize=auto;html=1;endArrow=none;startFill=0;" edge="1" parent="1" source="tUgD86OeabH8EpuCC3bH-3" target="tUgD86OeabH8EpuCC3bH-27">
          <mxGeometry relative="1" as="geometry" />
        </mxCell>
        <mxCell id="tUgD86OeabH8EpuCC3bH-3" value="docente" style="rounded=0;whiteSpace=wrap;html=1;shadow=1;" vertex="1" parent="1">
          <mxGeometry x="282" y="182" width="90" height="20" as="geometry" />
        </mxCell>
        <mxCell id="tUgD86OeabH8EpuCC3bH-4" value="materia" style="rounded=0;whiteSpace=wrap;html=1;shadow=1;" vertex="1" parent="1">
          <mxGeometry x="572" y="182" width="90" height="20" as="geometry" />
        </mxCell>
        <mxCell id="tUgD86OeabH8EpuCC3bH-5" style="edgeStyle=orthogonalEdgeStyle;rounded=0;orthogonalLoop=1;jettySize=auto;html=1;exitX=1;exitY=0.5;exitDx=0;exitDy=0;endArrow=none;startFill=0;shadow=1;" edge="1" parent="1" source="tUgD86OeabH8EpuCC3bH-7" target="tUgD86OeabH8EpuCC3bH-4">
          <mxGeometry relative="1" as="geometry" />
        </mxCell>
        <mxCell id="tUgD86OeabH8EpuCC3bH-6" value="" style="edgeStyle=orthogonalEdgeStyle;rounded=0;orthogonalLoop=1;jettySize=auto;html=1;endArrow=none;startFill=0;" edge="1" parent="1" source="tUgD86OeabH8EpuCC3bH-7" target="tUgD86OeabH8EpuCC3bH-25">
          <mxGeometry relative="1" as="geometry" />
        </mxCell>
        <mxCell id="tUgD86OeabH8EpuCC3bH-7" value="participa_en" style="rhombus;whiteSpace=wrap;html=1;shadow=1;" vertex="1" parent="1">
          <mxGeometry x="426" y="167" width="100" height="50" as="geometry" />
        </mxCell>
        <mxCell id="tUgD86OeabH8EpuCC3bH-8" value="nom" style="ellipse;whiteSpace=wrap;html=1;shadow=1;" vertex="1" parent="1">
          <mxGeometry x="132" y="139.5" width="70" height="35" as="geometry" />
        </mxCell>
        <mxCell id="tUgD86OeabH8EpuCC3bH-9" value="&lt;u&gt;CUID&lt;/u&gt;" style="ellipse;whiteSpace=wrap;html=1;shadow=1;" vertex="1" parent="1">
          <mxGeometry x="292" y="132" width="70" height="35" as="geometry" />
        </mxCell>
        <mxCell id="tUgD86OeabH8EpuCC3bH-10" value="apellido" style="ellipse;whiteSpace=wrap;html=1;shadow=1;" vertex="1" parent="1">
          <mxGeometry x="132" y="217" width="70" height="35" as="geometry" />
        </mxCell>
        <mxCell id="tUgD86OeabH8EpuCC3bH-11" value="nombre" style="ellipse;whiteSpace=wrap;html=1;shadow=1;" vertex="1" parent="1">
          <mxGeometry x="202" y="174.5" width="70" height="35" as="geometry" />
        </mxCell>
        <mxCell id="tUgD86OeabH8EpuCC3bH-12" value="" style="endArrow=none;html=1;rounded=0;entryX=0.5;entryY=1;entryDx=0;entryDy=0;exitX=0.5;exitY=0;exitDx=0;exitDy=0;shadow=1;" edge="1" parent="1" source="tUgD86OeabH8EpuCC3bH-3" target="tUgD86OeabH8EpuCC3bH-9">
          <mxGeometry width="50" height="50" relative="1" as="geometry">
            <mxPoint x="482" y="292" as="sourcePoint" />
            <mxPoint x="532" y="242" as="targetPoint" />
          </mxGeometry>
        </mxCell>
        <mxCell id="tUgD86OeabH8EpuCC3bH-13" value="" style="endArrow=none;html=1;rounded=0;entryX=1;entryY=0.5;entryDx=0;entryDy=0;exitX=0;exitY=0.5;exitDx=0;exitDy=0;shadow=1;" edge="1" parent="1" source="tUgD86OeabH8EpuCC3bH-3" target="tUgD86OeabH8EpuCC3bH-11">
          <mxGeometry width="50" height="50" relative="1" as="geometry">
            <mxPoint x="352" y="187" as="sourcePoint" />
            <mxPoint x="362" y="162" as="targetPoint" />
          </mxGeometry>
        </mxCell>
        <mxCell id="tUgD86OeabH8EpuCC3bH-14" value="" style="endArrow=none;html=1;rounded=0;entryX=0.34;entryY=0.03;entryDx=0;entryDy=0;exitX=1;exitY=0.5;exitDx=0;exitDy=0;entryPerimeter=0;shadow=1;" edge="1" parent="1" source="tUgD86OeabH8EpuCC3bH-8" target="tUgD86OeabH8EpuCC3bH-11">
          <mxGeometry width="50" height="50" relative="1" as="geometry">
            <mxPoint x="272" y="257" as="sourcePoint" />
            <mxPoint x="282" y="232" as="targetPoint" />
          </mxGeometry>
        </mxCell>
        <mxCell id="tUgD86OeabH8EpuCC3bH-15" value="" style="endArrow=none;html=1;rounded=0;entryX=0;entryY=1;entryDx=0;entryDy=0;exitX=1;exitY=0;exitDx=0;exitDy=0;shadow=1;" edge="1" parent="1" source="tUgD86OeabH8EpuCC3bH-10" target="tUgD86OeabH8EpuCC3bH-11">
          <mxGeometry width="50" height="50" relative="1" as="geometry">
            <mxPoint x="272" y="257" as="sourcePoint" />
            <mxPoint x="282" y="232" as="targetPoint" />
          </mxGeometry>
        </mxCell>
        <mxCell id="tUgD86OeabH8EpuCC3bH-16" style="edgeStyle=orthogonalEdgeStyle;rounded=0;orthogonalLoop=1;jettySize=auto;html=1;exitX=0.5;exitY=1;exitDx=0;exitDy=0;shadow=1;" edge="1" parent="1" source="tUgD86OeabH8EpuCC3bH-4" target="tUgD86OeabH8EpuCC3bH-4">
          <mxGeometry relative="1" as="geometry" />
        </mxCell>
        <mxCell id="tUgD86OeabH8EpuCC3bH-17" value="nombre_ma" style="ellipse;whiteSpace=wrap;html=1;shadow=1;" vertex="1" parent="1">
          <mxGeometry x="642" y="122" width="70" height="35" as="geometry" />
        </mxCell>
        <mxCell id="tUgD86OeabH8EpuCC3bH-18" value="año" style="ellipse;whiteSpace=wrap;html=1;shadow=1;" vertex="1" parent="1">
          <mxGeometry x="692" y="174.5" width="70" height="35" as="geometry" />
        </mxCell>
        <mxCell id="tUgD86OeabH8EpuCC3bH-19" value="&lt;u&gt;cod_m&lt;/u&gt;" style="ellipse;whiteSpace=wrap;html=1;shadow=1;" vertex="1" parent="1">
          <mxGeometry x="642" y="232" width="70" height="35" as="geometry" />
        </mxCell>
        <mxCell id="tUgD86OeabH8EpuCC3bH-20" value="" style="endArrow=none;html=1;rounded=0;entryX=0;entryY=1;entryDx=0;entryDy=0;exitX=0.5;exitY=0;exitDx=0;exitDy=0;shadow=1;" edge="1" parent="1" source="tUgD86OeabH8EpuCC3bH-4" target="tUgD86OeabH8EpuCC3bH-17">
          <mxGeometry width="50" height="50" relative="1" as="geometry">
            <mxPoint x="392" y="187" as="sourcePoint" />
            <mxPoint x="392" y="172" as="targetPoint" />
          </mxGeometry>
        </mxCell>
        <mxCell id="tUgD86OeabH8EpuCC3bH-21" value="" style="endArrow=none;html=1;rounded=0;entryX=0;entryY=0.5;entryDx=0;entryDy=0;exitX=1;exitY=0.5;exitDx=0;exitDy=0;shadow=1;" edge="1" parent="1" source="tUgD86OeabH8EpuCC3bH-4" target="tUgD86OeabH8EpuCC3bH-18">
          <mxGeometry width="50" height="50" relative="1" as="geometry">
            <mxPoint x="672" y="217" as="sourcePoint" />
            <mxPoint x="672" y="202" as="targetPoint" />
          </mxGeometry>
        </mxCell>
        <mxCell id="tUgD86OeabH8EpuCC3bH-22" value="" style="endArrow=none;html=1;rounded=0;exitX=0;exitY=0;exitDx=0;exitDy=0;shadow=1;" edge="1" parent="1" source="tUgD86OeabH8EpuCC3bH-19">
          <mxGeometry width="50" height="50" relative="1" as="geometry">
            <mxPoint x="612" y="217" as="sourcePoint" />
            <mxPoint x="612" y="202" as="targetPoint" />
          </mxGeometry>
        </mxCell>
        <mxCell id="tUgD86OeabH8EpuCC3bH-23" value="(1,1)" style="text;html=1;align=center;verticalAlign=middle;resizable=0;points=[];autosize=1;strokeColor=none;fillColor=none;" vertex="1" parent="1">
          <mxGeometry x="367" y="167" width="43" height="26" as="geometry" />
        </mxCell>
        <mxCell id="tUgD86OeabH8EpuCC3bH-24" value="(1,1)" style="text;html=1;align=center;verticalAlign=middle;resizable=0;points=[];autosize=1;strokeColor=none;fillColor=none;" vertex="1" parent="1">
          <mxGeometry x="530" y="170" width="43" height="26" as="geometry" />
        </mxCell>
        <mxCell id="tUgD86OeabH8EpuCC3bH-25" value="período" style="ellipse;whiteSpace=wrap;html=1;shadow=1;" vertex="1" parent="1">
          <mxGeometry x="434" y="252" width="84" height="39" as="geometry" />
        </mxCell>
        <mxCell id="tUgD86OeabH8EpuCC3bH-26" style="edgeStyle=orthogonalEdgeStyle;rounded=0;orthogonalLoop=1;jettySize=auto;html=1;exitX=0;exitY=0.5;exitDx=0;exitDy=0;endArrow=none;startFill=0;" edge="1" parent="1" source="tUgD86OeabH8EpuCC3bH-27">
          <mxGeometry relative="1" as="geometry">
            <mxPoint x="309" y="202" as="targetPoint" />
            <Array as="points">
              <mxPoint x="258" y="277" />
              <mxPoint x="258" y="233" />
              <mxPoint x="309" y="233" />
            </Array>
          </mxGeometry>
        </mxCell>
        <mxCell id="tUgD86OeabH8EpuCC3bH-36" value="" style="edgeStyle=orthogonalEdgeStyle;rounded=0;orthogonalLoop=1;jettySize=auto;html=1;endArrow=none;startFill=0;" edge="1" parent="1" source="tUgD86OeabH8EpuCC3bH-27" target="tUgD86OeabH8EpuCC3bH-33">
          <mxGeometry relative="1" as="geometry" />
        </mxCell>
        <mxCell id="tUgD86OeabH8EpuCC3bH-27" value="compañero_de" style="rhombus;whiteSpace=wrap;html=1;rounded=0;shadow=1;" vertex="1" parent="1">
          <mxGeometry x="275" y="254" width="104" height="46" as="geometry" />
        </mxCell>
        <mxCell id="tUgD86OeabH8EpuCC3bH-28" value="(0,n)" style="text;html=1;align=center;verticalAlign=middle;resizable=0;points=[];autosize=1;strokeColor=none;fillColor=none;" vertex="1" parent="1">
          <mxGeometry x="262" y="206" width="43" height="26" as="geometry" />
        </mxCell>
        <mxCell id="tUgD86OeabH8EpuCC3bH-29" value="(0,n)" style="text;html=1;align=center;verticalAlign=middle;resizable=0;points=[];autosize=1;strokeColor=none;fillColor=none;" vertex="1" parent="1">
          <mxGeometry x="251" y="252" width="43" height="26" as="geometry" />
        </mxCell>
        <mxCell id="tUgD86OeabH8EpuCC3bH-35" value="" style="group" vertex="1" connectable="0" parent="1">
          <mxGeometry x="290.5" y="323" width="73" height="40" as="geometry" />
        </mxCell>
        <mxCell id="tUgD86OeabH8EpuCC3bH-34" value="" style="ellipse;whiteSpace=wrap;html=1;rounded=0;shadow=1;" vertex="1" parent="tUgD86OeabH8EpuCC3bH-35">
          <mxGeometry width="73" height="40" as="geometry" />
        </mxCell>
        <mxCell id="tUgD86OeabH8EpuCC3bH-33" value="meses" style="ellipse;whiteSpace=wrap;html=1;rounded=0;shadow=1;" vertex="1" parent="tUgD86OeabH8EpuCC3bH-35">
          <mxGeometry x="3" y="2" width="67" height="36" as="geometry" />
        </mxCell>
      </root>
    </mxGraphModel>
  </diagram>
</mxfile>
